{"title":"La.Liga.2011-12.F.C.Barcelona.vs.Real.Racing.C.WS.PDTV.XviD-FW4S","uid":6749501,"size":1216374706,"categoryP":"video","categoryS":"tv_shows","magnet":"?xt=urn:btih:bd2ee6f3460d960db26c6bf64edd992b69069918&amp;dn=La.Liga.2011-12.F.C.Barcelona.vs.Real.Racing.C.WS.PDTV.XviD-FW4S&amp;tr=udp%3A%2F%2Ftracker.openbittorrent.com%3A80&amp;tr=udp%3A%2F%2Fopen.demonii.com%3A1337&amp;tr=udp%3A%2F%2Ftracker.coppersurfer.tk%3A6969&amp;tr=udp%3A%2F%2Fexodus.desync.com%3A6969","seeders":0,"leechers":0,"uploader":"TvTeam","files":7,"time":1318837230,"description":". \n  &lt;a href=&quot;\nhttp://www.torrentday.com&quot; rel=&quot;nofollow&quot; target=&quot;_NEW&quot;&gt;\nhttp://www.torrentday.com&lt;/a&gt;\n\n\nTo Avoid Fakes, ALWAYS Check That The Torrent Was Added By: TvTeam.\n\n\n               www . TorrentDay . Com \n(((((((((((((= Enjoy No RAR releases =))))))))))))))))))))\n\n...................................NFO:....................................\n\n.La.Liga.2011-12.F.C.Barcelona.vs.Real.Racing.C.WS.PDTV.XviD-FW4S\nPlayed: 15/10/2011\nCompetition: La Liga 2011-12\nCompetitors: F.C. Barcelona vs Real Racing Club\n\n\nGeneral\nFormat                           : AVI\nFormat/Info                      : Audio Video Interleave\nFile size                        : 1.09 GiB\nDuration                         : 1h 25mn\nOverall bit rate                 : 1 829 Kbps\nWriting application              : VirtualDubMod 1.5.10.2 (build 2540/release)\nWriting library                  : VirtualDubMod build 2540/release\n\nVideo\nID                               : 0\nFormat                           : MPEG-4 Visual\nFormat profile                   : Advanced Simple@L5\nFormat settings, BVOP            : 2\nFormat settings, QPel            : No\nFormat settings, GMC             : No warppoints\nFormat settings, Matrix          : Default (H.263)\nCodec ID                         : XVID\nCodec ID/Hint                    : XviD\nDuration                         : 1h 25mn\nBit rate                         : 1 709 Kbps\nWidth                            : 672 pixels\nHeight                           : 368 pixels\nDisplay aspect ratio             : 16:9\nFrame rate                       : 25.000 fps\nColor space                      : YUV\nChroma subsampling               : 4:2:0\nBit depth                        : 8 bits\nScan type                        : Progressive\nCompression mode                 : Lossy\nBits/(Pixel*Frame)               : 0.276\nStream size                      : 1.02 GiB (93%)\nWriting library                  : XviD 64\n\nAudio\nID                               : 1\nFormat                           : MPEG Audio\nFormat version                   : Version 1\nFormat profile                   : Layer 3\nMode                             : Joint stereo\nMode extension                   : MS Stereo\nCodec ID                         : 55\nCodec ID/Hint                    : MP3\nDuration                         : 1h 25mn\nBit rate mode                    : Variable\nBit rate                         : 106 Kbps\nMinimum bit rate                 : 32.0 Kbps\nChannel(s)                       : 2 channels\nSampling rate                    : 48.0 KHz\nCompression mode                 : Lossy\nStream size                      : 65.1 MiB (6%)\nAlignment                        : Aligned on interleaves\nInterleave, duration             : 24 ms (0.60 video frame)\nInterleave, preload duration     : 501 ms\nWriting library                  : LAME3.98r\nEncoding settings                : -m j -V 5 -q 2 -lowpass 16.5 --vbr-new -b 32","torrent":{"xt":"urn:btih:bd2ee6f3460d960db26c6bf64edd992b69069918","amp;dn":"La.Liga.2011-12.F.C.Barcelona.vs.Real.Racing.C.WS.PDTV.XviD-FW4S","amp;tr":["udp%3A%2F%2Ftracker.openbittorrent.com%3A80","udp%3A%2F%2Fopen.demonii.com%3A1337","udp%3A%2F%2Ftracker.coppersurfer.tk%3A6969","udp%3A%2F%2Fexodus.desync.com%3A6969"],"infoHash":"bd2ee6f3460d960db26c6bf64edd992b69069918","infoHashBuffer":{"type":"Buffer","data":[189,46,230,243,70,13,150,13,178,108,107,246,78,221,153,43,105,6,153,24]},"announce":[],"urlList":[]}}